<svg width="26" height="24" viewBox="0 0 26 24" fill="none" xmlns="http://www.w3.org/2000/svg">
<path fill-rule="evenodd" clip-rule="evenodd" d="M19.7147 18.9749L16.502 13.4433H22.9274C22.9274 11.9516 23.1782 9.31241 21.0245 9.25306C18.1263 9.17392 16.5299 10.1829 14.4955 10.721C13.8586 10.8912 18.0586 7.98689 18.8867 5.88187C19.1733 5.15383 18.8867 4.40599 18.6199 3.94701C18.3612 3.50385 17.7242 3.09234 17.2226 2.95385C16.713 2.81537 16.3388 2.74414 15.869 3.0132C15.3833 3.29018 14.9335 3.82039 14.6508 4.37434C13.8068 6.02036 13.4565 7.83653 12.6842 9.76744C12.1825 7.87609 11.7645 5.14987 10.7294 3.79269C9.85361 2.64522 8.28906 2.41573 7.23407 3.62651C6.58118 4.37434 6.36222 5.63655 6.77625 6.35669C8.02232 8.50918 11.4142 10.7725 11.0479 10.6775C8.81854 10.0879 8.04621 9.46277 5.43861 9.26097C4.74591 9.20557 3.88998 9.39155 3.41623 9.66456C2.17812 10.3728 2.43689 12.2246 2.43689 13.4433H8.86233L5.64961 18.9749L9.47143 21.1669L12.6842 15.6354L15.8969 21.1669L17.6844 20.1421C17.7879 20.1026 17.8914 20.0511 17.9909 19.9957C18.0666 19.9522 18.1342 19.9047 18.2019 19.8454L19.7227 18.9749H19.7147ZM19.5555 21.3925C19.44 21.4795 19.3166 21.5587 19.1892 21.6299C19.0499 21.709 18.9026 21.7842 18.7553 21.8515L15.0131 24L12.6802 19.9839L10.3473 24L2.35329 19.4141L4.68619 15.4019H0.0203834V13.008C0.0203834 12.4858 -0.0114655 11.9674 0.00445876 11.4412C0.0562126 9.70017 0.609582 8.06998 2.20599 7.15596C2.82704 6.79985 3.6113 6.5664 4.38761 6.47144C3.8223 4.86102 4.30799 2.88659 5.41075 1.62437C7.42516 -0.678477 10.8091 -0.488551 12.6443 1.91322C12.724 2.01609 12.7996 2.11897 12.8713 2.22976C13.337 1.53337 13.9501 0.916108 14.6667 0.504602C15.7297 -0.104743 16.713 -0.100786 17.8556 0.207843C18.9742 0.512515 20.1248 1.31179 20.706 2.31285C21.4146 3.53154 21.6535 4.97577 21.128 6.31316C21.1121 6.34878 21.1001 6.38439 21.0842 6.42C22.1989 6.45165 23.23 6.85525 24.0023 7.66639C25.4275 9.16205 25.332 11.1167 25.332 13.0041V15.3979H20.6702L23.0031 19.4101L19.5515 21.3925H19.5555Z" fill="#222222"/>
<path fill-rule="evenodd" clip-rule="evenodd" d="M16.5017 13.4445L19.7144 18.9761H19.7223L18.2016 19.8466C18.1339 19.906 18.0662 19.9534 17.9906 19.997C17.891 20.0524 17.7875 20.1038 17.684 20.1434L15.8965 21.1682L12.6838 15.6366L9.47109 21.1682L5.64927 18.9761L8.86199 13.4445H2.43655C2.43655 13.2723 2.43138 13.0875 2.426 12.895C2.39331 11.7253 2.35274 10.274 3.41589 9.6658C3.88964 9.39279 4.74556 9.20682 5.43827 9.26221C7.16501 9.39584 8.08697 9.71512 9.16018 10.0868C9.70766 10.2764 10.2945 10.4796 11.0476 10.6787C11.1558 10.7068 10.936 10.529 10.5404 10.2091C9.59702 9.44609 7.65385 7.87451 6.77591 6.35793C6.36188 5.6378 6.58084 4.37558 7.23373 3.62775C8.28871 2.41697 9.85327 2.64647 10.7291 3.79393C11.5274 4.8407 11.9587 6.70189 12.3444 8.36629C12.4587 8.85984 12.5691 9.3361 12.6838 9.76868C13.0029 8.97093 13.25 8.19276 13.4895 7.43809C13.8299 6.36612 14.1552 5.34155 14.6505 4.37558C14.9331 3.82163 15.383 3.29142 15.8687 3.01445C16.3384 2.74538 16.7127 2.81661 17.2222 2.95509C17.7238 3.09358 18.3608 3.50509 18.6196 3.94825C18.8863 4.40723 19.1729 5.15507 18.8863 5.88312C18.3428 7.26487 16.3463 8.991 15.2187 9.96592C14.6285 10.4762 14.2763 10.7807 14.4952 10.7223C15.0807 10.5674 15.6299 10.3735 16.1844 10.1778C17.5563 9.69349 18.9601 9.19794 21.0241 9.2543C22.9838 9.3083 22.9528 11.4981 22.9313 13.016C22.9291 13.1663 22.9271 13.3101 22.9271 13.4445H16.5017Z" fill="white"/>
</svg>
