<svg width="24" height="24" viewBox="0 0 24 24" fill="none" xmlns="http://www.w3.org/2000/svg">
<path d="M22 5L21.6438 5.2078C20.8358 5.67909 20.4319 5.91473 20.1774 6.28772C19.923 6.6607 19.851 7.12279 19.707 8.04697L19.6364 8.5M2 5L2.35623 5.2078C3.16415 5.67909 3.56811 5.91473 3.82255 6.28772C4.07699 6.6607 4.14901 7.12279 4.29303 8.04697L4.36364 8.5M4.36364 8.5L5.47261 15.6159C5.7243 17.2309 5.85014 18.0384 6.41167 18.5192C6.97321 19 7.79044 19 9.42491 19H14.5751C16.2096 19 17.0268 19 17.5883 18.5192C18.1499 18.0384 18.2757 17.2309 18.5274 15.6159L19.6364 8.5M4.36364 8.5L5.24307 7.873C5.69223 7.55276 6.29836 7.56539 6.73379 7.90406L6.75 7.91667C7.19114 8.25977 7.80886 8.25977 8.25 7.91667V7.91667C8.69114 7.57356 9.30886 7.57356 9.75 7.91667V7.91667C10.1911 8.25977 10.8089 8.25977 11.25 7.91667V7.91667C11.6911 7.57356 12.3089 7.57356 12.75 7.91667V7.91667C13.1911 8.25977 13.8089 8.25977 14.25 7.91667V7.91667C14.6911 7.57356 15.3089 7.57356 15.75 7.91667V7.91667C16.1911 8.25977 16.8089 8.25977 17.25 7.91667L17.2662 7.90406C17.7016 7.56539 18.3078 7.55276 18.7569 7.87299L19.6364 8.5" stroke="#222222" stroke-linecap="round"/>
<path d="M16.0444 12.6531C15.8555 12.6531 15.6836 12.6076 15.5288 12.5167C15.3739 12.4244 15.2504 12.3008 15.158 12.146C15.0657 11.9897 15.0195 11.8171 15.0195 11.6282C15.0195 11.4407 15.0657 11.2695 15.158 11.1147C15.2504 10.9585 15.3739 10.8349 15.5288 10.744C15.6836 10.6516 15.8555 10.6055 16.0444 10.6055C16.2333 10.6055 16.4052 10.6516 16.56 10.744C16.7148 10.8349 16.8384 10.9585 16.9308 11.1147C17.0231 11.2695 17.0692 11.4407 17.0692 11.6282C17.0692 11.8171 17.0231 11.9897 16.9308 12.146C16.8384 12.3008 16.7148 12.4244 16.56 12.5167C16.4052 12.6076 16.2333 12.6531 16.0444 12.6531ZM16.0444 12.1076C16.1325 12.1076 16.2127 12.0863 16.2852 12.0437C16.3576 12.0011 16.4151 11.9435 16.4577 11.8711C16.5018 11.7987 16.5238 11.7177 16.5238 11.6282C16.5238 11.5401 16.5018 11.4599 16.4577 11.3874C16.4151 11.315 16.3576 11.2575 16.2852 11.2148C16.2127 11.1722 16.1325 11.1509 16.0444 11.1509C15.9563 11.1509 15.8761 11.1722 15.8036 11.2148C15.7312 11.2575 15.6729 11.315 15.6289 11.3874C15.5863 11.4599 15.565 11.5401 15.565 11.6282C15.565 11.7163 15.5863 11.7972 15.6289 11.8711C15.6715 11.9435 15.729 12.0011 15.8015 12.0437C15.8754 12.0863 15.9563 12.1076 16.0444 12.1076Z" fill="#222222"/>
<path d="M12.7885 15.0826C12.4377 15.0826 12.1365 14.9938 11.8851 14.8162C11.6351 14.6373 11.4426 14.3794 11.3077 14.0428C11.1742 13.7047 11.1074 13.2978 11.1074 12.8219C11.1088 12.3461 11.1763 11.9412 11.3098 11.6074C11.4448 11.2722 11.6373 11.0165 11.8873 10.8404C12.1387 10.6642 12.4391 10.5762 12.7885 10.5762C13.138 10.5762 13.4384 10.6642 13.6898 10.8404C13.9412 11.0165 14.1337 11.2722 14.2672 11.6074C14.4022 11.9426 14.4696 12.3475 14.4696 12.8219C14.4696 13.2992 14.4022 13.7069 14.2672 14.0449C14.1337 14.3816 13.9412 14.6387 13.6898 14.8162C13.4398 14.9938 13.1394 15.0826 12.7885 15.0826ZM12.7885 14.4157C13.0613 14.4157 13.2765 14.2814 13.4341 14.013C13.5932 13.7431 13.6728 13.3461 13.6728 12.8219C13.6728 12.4753 13.6365 12.1841 13.5641 11.9483C13.4917 11.7125 13.3894 11.535 13.2573 11.4157C13.1252 11.2949 12.9689 11.2346 12.7885 11.2346C12.5172 11.2346 12.3027 11.3695 12.1451 11.6394C11.9874 11.9078 11.9078 12.302 11.9064 12.8219C11.905 13.1699 11.9398 13.4625 12.0108 13.6998C12.0833 13.937 12.1855 14.1159 12.3176 14.2367C12.4498 14.356 12.6067 14.4157 12.7885 14.4157Z" fill="#222222"/>
<path d="M8.95366 15.0591C8.64684 15.0591 8.37411 15.0066 8.13548 14.9015C7.89826 14.7963 7.71076 14.65 7.57298 14.4625C7.43519 14.275 7.36204 14.0584 7.35352 13.8127H8.15465C8.16175 13.9306 8.20082 14.0336 8.27184 14.1216C8.34286 14.2083 8.43732 14.2757 8.55522 14.324C8.67312 14.3723 8.80522 14.3965 8.95153 14.3965C9.10778 14.3965 9.24627 14.3695 9.36701 14.3155C9.48775 14.2601 9.58221 14.1834 9.65039 14.0854C9.71857 13.9874 9.75195 13.8745 9.75053 13.7466C9.75195 13.6145 9.71786 13.498 9.64826 13.3972C9.57866 13.2963 9.47781 13.2175 9.3457 13.1607C9.21502 13.1039 9.05735 13.0755 8.87269 13.0755H8.48704V12.4661H8.87269C9.02468 12.4661 9.15749 12.4398 9.27113 12.3873C9.38619 12.3347 9.47638 12.2608 9.54173 12.1657C9.60707 12.0691 9.63903 11.9576 9.63761 11.8311C9.63903 11.7076 9.61133 11.6003 9.55451 11.5094C9.49911 11.4171 9.42028 11.3453 9.318 11.2942C9.21715 11.2431 9.09854 11.2175 8.96218 11.2175C8.82866 11.2175 8.70508 11.2417 8.59144 11.29C8.47781 11.3382 8.38619 11.4071 8.31658 11.4966C8.24698 11.5847 8.21005 11.6898 8.20579 11.812H7.44513C7.45082 11.5676 7.52113 11.3532 7.65607 11.1685C7.79244 10.9824 7.97425 10.8375 8.20153 10.7338C8.4288 10.6287 8.68377 10.5762 8.96644 10.5762C9.25763 10.5762 9.51048 10.6309 9.72496 10.7402C9.94087 10.8482 10.1078 10.9938 10.2257 11.177C10.3436 11.3603 10.4025 11.5627 10.4025 11.7843C10.4039 12.03 10.3315 12.236 10.1852 12.4022C10.0403 12.5684 9.84996 12.677 9.61417 12.7282V12.7623C9.92099 12.8049 10.1561 12.9185 10.3194 13.1032C10.4842 13.2864 10.5659 13.5144 10.5645 13.7871C10.5645 14.0314 10.4949 14.2502 10.3556 14.4434C10.2179 14.6351 10.0275 14.7857 9.78462 14.8951C9.54315 15.0044 9.26616 15.0591 8.95366 15.0591Z" fill="#222222"/>
</svg>
