<svg width="24" height="24" viewBox="0 0 24 24" fill="none" xmlns="http://www.w3.org/2000/svg">
<path d="M3.5 17C3.5 13.134 6.63401 10 10.5 10H15.7544C17.4095 10 18.8384 11.1594 19.1793 12.779L20.2568 17.897C20.3223 18.2078 20.0851 18.5 19.7676 18.5H3.86364C3.66281 18.5 3.5 18.3372 3.5 18.1364V17Z" stroke="#222222"/>
<circle cx="12" cy="14" r="1.5" stroke="#222222"/>
<path d="M19 12V7C19 5.89543 18.1046 5 17 5H9C8.44771 5 8 5.44772 8 6V6C8 6.55228 8.44772 7 9 7H16C16.5523 7 17 7.44772 17 8V10" stroke="#222222"/>
</svg>
