<svg width="34" height="32" viewBox="0 0 34 32" fill="none" xmlns="http://www.w3.org/2000/svg">
<path fill-rule="evenodd" clip-rule="evenodd" d="M26.2863 25.2998L22.0027 17.9244H30.5699C30.5699 15.9354 30.9043 12.4165 28.0326 12.3374C24.1684 12.2319 22.0398 13.5772 19.3274 14.2947C18.4781 14.5216 24.0781 10.6492 25.1822 7.8425C25.5644 6.87177 25.1822 5.87466 24.8266 5.26268C24.4815 4.67179 23.6322 4.12312 22.9634 3.93847C22.284 3.75382 21.785 3.65886 21.1587 4.01761C20.5111 4.38691 19.9113 5.09385 19.5344 5.83245C18.4091 8.02715 17.942 10.4487 16.9122 13.0233C16.2434 10.5015 15.686 6.86649 14.3059 5.05692C13.1382 3.52697 11.0521 3.22097 9.64543 4.83534C8.77491 5.83245 8.48296 7.51541 9.035 8.47559C10.6964 11.3456 15.2189 14.3633 14.7306 14.2367C11.7581 13.4506 10.7283 12.617 7.25148 12.348C6.32788 12.2741 5.18664 12.5221 4.55498 12.8861C2.90416 13.8304 3.24919 16.2995 3.24919 17.9244H11.8164L7.53282 25.2998L12.6286 28.2226L16.9122 20.8471L21.1958 28.2226L23.5792 26.8562C23.7172 26.8034 23.8552 26.7348 23.9879 26.661C24.0887 26.6029 24.179 26.5396 24.2692 26.4605L26.2969 25.2998H26.2863ZM26.074 28.5233C25.92 28.6394 25.7555 28.7449 25.5856 28.8398C25.3998 28.9454 25.2034 29.0456 25.007 29.1353L20.0174 32L16.9069 26.6451L13.7964 32L3.13772 25.8854L6.24826 20.5359H0.0271778V17.3441C0.0271778 16.6477 -0.0152873 15.9565 0.00594501 15.2549C0.0749501 12.9336 0.812776 10.76 2.94132 9.54128C3.76938 9.06647 4.81507 8.7552 5.85015 8.62858C5.0964 6.48137 5.74399 3.84878 7.21433 2.16583C9.90022 -0.904637 14.4121 -0.651401 16.8591 2.55096C16.9653 2.68813 17.0661 2.82529 17.1617 2.97301C17.7827 2.04449 18.6002 1.22148 19.5556 0.672803C20.9729 -0.139658 22.284 -0.134382 23.8074 0.277124C25.299 0.683354 26.833 1.74905 27.608 3.0838C28.5528 4.70872 28.8713 6.63436 28.1707 8.41755C28.1494 8.46503 28.1335 8.51252 28.1123 8.56C29.5985 8.6022 30.9733 9.14033 32.0031 10.2218C33.9034 12.2161 33.776 14.8223 33.776 17.3388V20.5306H27.5602L30.6708 25.8802L26.0687 28.5233H26.074Z" fill="#222222"/>
<path fill-rule="evenodd" clip-rule="evenodd" d="M22.0022 17.9274L26.2858 25.3028H26.2964L24.2688 26.4635C24.1785 26.5426 24.0883 26.6059 23.9874 26.6639C23.8547 26.7378 23.7167 26.8064 23.5787 26.8591L21.1954 28.2255L16.9117 20.8501L12.6281 28.2255L7.53236 25.3028L11.816 17.9274H3.24873C3.24873 17.6977 3.24184 17.4513 3.23467 17.1946C3.19107 15.6351 3.13698 13.6999 4.55452 12.889C5.18618 12.525 6.32742 12.2771 7.25103 12.3509C9.55334 12.5291 10.7826 12.9548 12.2136 13.4503C12.9435 13.7031 13.726 13.9741 14.7301 14.2396C14.8744 14.277 14.5813 14.04 14.0539 13.6134C12.796 12.5961 10.2051 10.5007 9.03454 8.47854C8.4825 7.51836 8.77445 5.83541 9.64498 4.8383C11.0516 3.22393 13.1377 3.52992 14.3055 5.05988C15.3699 6.45557 15.9449 8.93715 16.4592 11.1564C16.6116 11.8144 16.7588 12.4494 16.9117 13.0262C17.3372 11.9625 17.6666 10.925 17.9861 9.91876C18.4398 8.48946 18.8736 7.12337 19.5339 5.83541C19.9108 5.09681 20.5106 4.38986 21.1582 4.02056C21.7846 3.66181 22.2835 3.75678 22.963 3.94143C23.6318 4.12608 24.4811 4.67475 24.8261 5.26563C25.1817 5.87761 25.5639 6.87472 25.1818 7.84546C24.457 9.68779 21.7951 11.9893 20.2916 13.2892C19.5047 13.9696 19.0351 14.3756 19.3269 14.2977C20.1076 14.0912 20.8399 13.8326 21.5791 13.5717C23.4084 12.926 25.2801 12.2652 28.0322 12.3404C30.6451 12.4124 30.6037 15.3321 30.575 17.356C30.5722 17.5564 30.5695 17.7481 30.5695 17.9274H22.0022Z" fill="white"/>
</svg>
